<?xml version="1.0" encoding="UTF-8" standalone="no"?>
<svg
   width="128"
   height="128"
   viewBox="0 0 128 128"
   fill="none"
   version="1.1"
   id="svg4"
   sodipodi:docname="egs.svg"
   inkscape:version="1.4.2 (ebf0e940d0, 2025-05-08)"
   xmlns:inkscape="http://www.inkscape.org/namespaces/inkscape"
   xmlns:sodipodi="http://sodipodi.sourceforge.net/DTD/sodipodi-0.dtd"
   xmlns="http://www.w3.org/2000/svg"
   xmlns:svg="http://www.w3.org/2000/svg"
   xmlns:rdf="http://www.w3.org/1999/02/22-rdf-syntax-ns#"
   xmlns:cc="http://creativecommons.org/ns#"
   xmlns:dc="http://purl.org/dc/elements/1.1/">
  <metadata
     id="metadata10">
    <rdf:RDF>
      <cc:Work
         rdf:about="">
        <dc:format>image/svg+xml</dc:format>
        <dc:type
           rdf:resource="http://purl.org/dc/dcmitype/StillImage" />
      </cc:Work>
    </rdf:RDF>
  </metadata>
  <defs
     id="defs8" />
  <sodipodi:namedview
     pagecolor="#ffffff"
     bordercolor="#666666"
     borderopacity="1"
     objecttolerance="10"
     gridtolerance="10"
     guidetolerance="10"
     inkscape:pageopacity="0"
     inkscape:pageshadow="2"
     inkscape:window-width="2560"
     inkscape:window-height="1376"
     id="namedview6"
     showgrid="false"
     inkscape:zoom="3.7123105"
     inkscape:cx="5.5221674"
     inkscape:cy="122.43049"
     inkscape:window-x="0"
     inkscape:window-y="0"
     inkscape:window-maximized="1"
     inkscape:current-layer="svg4"
     inkscape:showpageshadow="2"
     inkscape:pagecheckerboard="0"
     inkscape:deskcolor="#d1d1d1" />
  <path
     fill-rule="evenodd"
     clip-rule="evenodd"
     d="m 18.864079,0 h 90.271651 c 7.3168,0 10.01733,2.700293 10.01733,10.02056 v 88.330373 c 0,0.82827 -0.0336,1.597868 -0.10693,2.310667 -0.0137,0.13332 -0.0267,0.26613 -0.0398,0.39867 -0.14213,1.45893 -0.28214,2.8944 -1.64428,4.5104 -0.14479,0.17282 -1.66213,1.30187 -1.66213,1.30187 -0.14746,0.0723 -0.2864,0.14107 -0.42054,0.20746 -0.6088,0.3016 -1.11892,0.5544 -1.87333,0.85787 l -44.450917,18.62347 c -2.307734,1.05787 -3.272797,1.47014 -4.948797,1.4368 v 2.7e-4 h -0.0067 -0.0067 v -2.7e-4 c -1.675984,0.0333 -2.641049,-0.37892 -4.948517,-1.43679 L 14.593652,107.93787 c -0.7552,-0.304 -1.265893,-0.55707 -1.875679,-0.8592 -0.133413,-0.0659 -0.271571,-0.1344 -0.418054,-0.20612 0,0 -1.5172,-1.12907 -1.6624,-1.30187 -1.3621865,-1.616 -1.5020801,-3.05146 -1.64424,-4.5104 -0.01295,-0.13251 -0.025873,-0.26535 -0.039759,-0.39866 C 8.8803488,99.948814 8.846935,99.179214 8.846935,98.350943 V 10.02056 C 8.846935,2.700293 11.547229,0 18.864079,0 Z"
     fill="#000000"
     id="path12"
     style="fill:#ffffff;stroke-width:2.66667"
     sodipodi:nodetypes="sssscccccccccccccccccccsss" />
  <path
     fill-rule="evenodd"
     clip-rule="evenodd"
     d="m 23.143595,6.0680915 h 81.712645 c 6.62307,0 9.06755,2.4442679 9.06755,9.0704715 v 79.955422 c 0,0.749737 -0.0304,1.446368 -0.0968,2.091586 -0.0127,0.120694 -0.0242,0.240904 -0.036,0.360867 -0.12867,1.320606 -0.25539,2.619972 -1.48837,4.082752 -0.13106,0.15642 -1.50454,1.17843 -1.50454,1.17843 -0.13348,0.0654 -0.25924,0.12769 -0.38066,0.18779 -0.55108,0.273 -1.01284,0.50183 -1.69572,0.77652 l -40.236367,16.85771 c -2.088928,0.95756 -2.962493,1.33074 -4.479585,1.30057 v 2.4e-4 h -0.0059 -0.0059 v -2.4e-4 c -1.517078,0.0302 -2.390641,-0.343 -4.479329,-1.30056 L 19.278064,103.77194 c -0.683597,-0.27517 -1.145869,-0.50425 -1.697839,-0.77773 -0.120765,-0.0596 -0.245824,-0.12167 -0.378417,-0.18658 0,0 -1.373348,-1.02201 -1.504781,-1.17843 -1.233032,-1.46278 -1.359662,-2.762142 -1.488343,-4.082749 -0.01171,-0.119968 -0.02342,-0.240178 -0.03599,-0.360867 -0.06624,-0.645217 -0.09648,-1.341849 -0.09648,-2.091586 V 15.138563 c 0,-6.6262036 2.444268,-9.0704715 9.067381,-9.0704715 z M 92.561641,47.675271 v 10.02729 c 0,1.777061 -0.821427,2.601624 -2.525834,2.601624 h -1.26388 c -1.767888,0 -2.589315,-0.824563 -2.589315,-2.601624 V 29.651278 c 0,-1.776963 0.821427,-2.601457 2.589315,-2.601457 h 1.137155 c 1.70537,0 2.526555,0.824494 2.526555,2.601457 v 8.695265 h 6.630791 v -9.076047 c 0,-5.520693 -2.652559,-8.186309 -8.146192,-8.186309 h -3.284982 c -5.493634,0 -8.210398,2.728545 -8.210398,8.250275 v 28.685034 c 0,5.521875 2.716764,8.250227 8.210398,8.250227 h 3.347741 c 5.495082,0 8.210158,-2.728352 8.210158,-8.250227 V 47.675271 Z M 35.564366,46.342353 h 7.957429 V 40.187088 H 35.564366 V 27.620837 h 8.274366 V 21.465524 H 28.806849 v 44.42378 H 43.964491 V 59.733797 H 35.564366 Z M 75.853354,65.889304 H 69.094629 V 21.465451 h 6.758725 z M 59.288929,41.202105 c 0,1.77706 -0.819975,2.60259 -2.525346,2.60259 H 53.984057 V 27.430821 h 2.779526 c 1.705371,0 2.525346,0.824709 2.525346,2.601433 z M 57.83653,21.465162 H 47.22654 v 44.4239 h 6.757517 V 49.769027 h 3.852473 c 5.49484,0 8.210158,-2.728352 8.210158,-8.249021 V 29.715462 c 0,-5.521731 -2.715318,-8.2503 -8.210158,-8.2503 z m 41.528247,65.172214 0.01858,-0.184663 0.01831,-0.202755 v -0.202997 -0.03694 -0.202756 l -0.01831,-0.202755 -0.01858,-0.184421 -0.0367,-0.184421 -0.03694,-0.184663 -0.03694,-0.165844 -0.0543,-0.166059 -0.05527,-0.165845 -0.07363,-0.147482 -0.09245,-0.166302 -0.091,-0.147483 -0.110787,-0.165817 -0.109576,-0.147483 -0.128906,-0.129149 -0.127937,-0.147725 -0.147483,-0.128906 -0.146513,-0.129148 -0.146756,-0.09221 -0.147483,-0.110787 -0.146271,-0.09197 -0.164875,-0.09221 -0.16606,-0.09245 -0.183452,-0.09221 -0.183209,-0.07363 -0.183452,-0.09221 -0.202755,-0.07266 -0.164875,-0.05527 -0.164875,-0.05551 -0.184663,-0.05527 -0.164632,-0.05527 -0.183452,-0.05527 -0.183452,-0.05551 -0.18442,-0.0367 -0.201787,-0.05527 -0.183451,-0.05551 -0.201544,-0.0367 -0.201786,-0.05551 -0.201786,-0.05527 -0.202997,-0.05527 -0.18321,-0.03694 -0.164875,-0.05551 -0.166059,-0.0367 -0.146272,-0.05527 -0.146513,-0.03694 -0.22039,-0.07363 -0.202755,-0.07388 -0.183452,-0.07385 -0.146271,-0.09221 -0.16606,-0.09221 -0.127936,-0.129148 -0.07385,-0.110545 -0.091,-0.202998 -0.01858,-0.239451 v -0.03718 l 0.01858,-0.184179 0.07242,-0.166086 0.110787,-0.16606 0.164875,-0.147725 0.129148,-0.07363 0.146514,-0.07388 0.164875,-0.0367 0.184421,-0.03718 0.201786,-0.0367 h 0.220147 0.183452 l 0.164875,0.01831 0.18442,0.01831 0.183452,0.01858 0.183209,0.03694 0.18321,0.03694 0.184663,0.03694 0.183209,0.05527 0.183209,0.05551 0.202029,0.05503 0.147483,0.07388 0.164875,0.05527 0.146513,0.07363 0.16606,0.07388 0.146271,0.07388 0.164875,0.07363 0.147725,0.09245 0.164875,0.07363 0.147483,0.110787 0.146513,0.09197 0.164875,0.09245 0.147483,0.110545 0.109576,-0.147483 0.09221,-0.147483 0.10936,-0.147483 0.11103,-0.147482 0.10936,-0.166087 0.09245,-0.147483 0.110302,-0.147483 0.109818,-0.147725 0.09197,-0.147482 0.109845,-0.147483 0.110545,-0.147725 0.09245,-0.147483 0.109333,-0.165844 0.110787,-0.147726 0.109576,-0.147482 0.09221,-0.147483 0.10936,-0.147725 -0.146271,-0.110545 -0.146514,-0.110545 -0.147482,-0.110787 -0.146514,-0.09197 -0.165817,-0.110787 -0.146514,-0.09221 -0.165117,-0.09221 -0.165817,-0.09221 -0.146514,-0.07388 -0.165117,-0.09221 -0.184179,-0.07388 -0.165117,-0.07388 -0.164633,-0.07363 -0.165117,-0.05527 -0.184178,-0.07363 -0.165118,-0.03718 -0.164874,-0.05527 -0.184421,-0.05527 -0.164875,-0.03694 -0.183452,-0.03694 -0.183209,-0.03694 -0.166087,-0.0367 -0.183451,-0.03694 -0.201786,-0.01831 -0.18321,-0.03694 -0.202997,-0.01858 h -0.183209 l -0.201787,-0.01831 -0.201786,-0.01831 h -0.201543 -0.202029 -0.202755 -0.183451 l -0.18321,0.01831 -0.183209,0.01831 -0.184663,0.01858 -0.18321,0.01831 -0.165117,0.03694 -0.183209,0.03694 -0.165844,0.0367 -0.165118,0.03694 -0.146513,0.03694 -0.16606,0.05551 -0.183209,0.07363 -0.183209,0.05551 -0.166087,0.07363 -0.164875,0.09221 -0.164875,0.07385 -0.166086,0.09197 -0.146271,0.09221 -0.146756,0.110787 -0.147483,0.110545 -0.127937,0.09221 -0.147483,0.129149 -0.128179,0.147725 -0.128906,0.129148 -0.127937,0.147483 -0.110787,0.147483 -0.109818,0.147483 -0.09197,0.165844 -0.09124,0.166302 -0.07363,0.165844 -0.07388,0.166059 -0.07267,0.165844 -0.0367,0.165845 -0.05551,0.166301 -0.03694,0.16606 -0.03694,0.165602 -0.01831,0.184663 -0.01831,0.166086 -0.01858,0.184179 v 0.184663 0.0367 0.202997 l 0.01858,0.202756 0.01831,0.18442 0.01831,0.184421 0.03694,0.16606 0.03694,0.184421 0.05551,0.147483 0.05406,0.166086 0.05527,0.147725 0.07388,0.127937 0.09221,0.165817 0.091,0.147725 0.09245,0.128907 0.10936,0.128906 0.110787,0.12939 0.128179,0.129149 0.128907,0.128906 0.127937,0.110787 0.147482,0.09221 0.146514,0.110787 0.164875,0.09197 0.147725,0.09221 0.183452,0.09221 0.164632,0.09221 0.184421,0.07388 0.183452,0.07363 0.183209,0.07388 0.201786,0.07388 0.16606,0.05527 0.164875,0.05527 0.165117,0.05551 0.183209,0.03694 0.165844,0.05503 0.183694,0.05551 0.182967,0.03694 0.184421,0.05527 0.183452,0.03694 0.201786,0.05527 0.183451,0.03694 0.201544,0.05527 0.184663,0.0367 0.18321,0.05551 0.164874,0.0367 0.16606,0.05551 0.146271,0.03694 0.12818,0.03694 0.220147,0.09197 0.184421,0.07388 0.164875,0.07388 0.146513,0.07363 0.147725,0.110787 0.127937,0.110545 0.09221,0.129149 0.07385,0.18442 0.01804,0.221359 v 0.0367 l -0.01804,0.184663 -0.05551,0.165817 -0.07388,0.147726 -0.109333,0.129148 -0.147483,0.110545 -0.128179,0.07388 -0.147483,0.05527 -0.165117,0.0367 -0.164633,0.03718 -0.184663,0.0367 -0.201786,0.01831 h -0.22013 -0.183452 l -0.201544,-0.01831 h -0.183451 l -0.184421,-0.0367 -0.201786,-0.01858 -0.18321,-0.03694 -0.183209,-0.0367 -0.184663,-0.03694 -0.164633,-0.05551 -0.183694,-0.05527 -0.183209,-0.05527 -0.165844,-0.07363 -0.165117,-0.05551 -0.164875,-0.07388 -0.16606,-0.07363 -0.164875,-0.07388 -0.146271,-0.09221 -0.166302,-0.07363 -0.146029,-0.09245 -0.165117,-0.110545 -0.147483,-0.09197 -0.164875,-0.110787 -0.147725,-0.110545 -0.164875,-0.110787 -0.146514,-0.110545 -0.110544,0.147483 -0.127937,0.128906 -0.110787,0.147726 -0.127937,0.147482 -0.110545,0.128906 -0.109818,0.147726 -0.128906,0.147482 -0.109576,0.129149 -0.129148,0.147483 -0.109603,0.129148 -0.129148,0.147725 -0.10936,0.147483 -0.110788,0.128906 -0.128179,0.147483 -0.110545,0.147725 -0.127936,0.129149 -0.110788,0.147483 0.146514,0.129148 0.128906,0.110545 0.146756,0.110787 0.147483,0.110545 0.146514,0.110787 0.146271,0.110545 0.147483,0.09221 0.146513,0.09221 0.16606,0.09221 0.146513,0.09197 0.164875,0.09245 0.165818,0.07388 0.165117,0.091 0.164875,0.07385 0.165817,0.07363 0.183452,0.07388 0.165117,0.05527 0.183209,0.05527 0.165817,0.07388 0.183452,0.05527 0.183209,0.05527 0.165118,0.03718 0.184178,0.05503 0.183452,0.03694 0.183209,0.03694 0.183452,0.03694 0.184663,0.0367 0.183209,0.01858 0.183209,0.03694 0.202029,0.01831 0.184178,0.01858 0.183452,0.01858 h 0.201544 l 0.183694,0.01831 h 0.183209 0.202755 0.201786 0.183452 l 0.183451,-0.01831 0.201544,-0.01858 0.184421,-0.01858 0.164875,-0.01831 0.183452,-0.01831 0.184663,-0.03718 0.164632,-0.0367 0.165118,-0.03694 0.183209,-0.03694 0.166059,-0.05527 0.18321,-0.05551 0.183451,-0.05503 0.18321,-0.07388 0.184421,-0.07388 0.164875,-0.09221 0.164874,-0.07388 0.166087,-0.09197 0.146514,-0.110787 0.146513,-0.091 0.147483,-0.110545 0.128179,-0.110787 0.147241,-0.129149 0.109575,-0.110544 0.129149,-0.129391 0.109602,-0.128906 0.09221,-0.147483 0.109818,-0.147483 0.09197,-0.147725 0.09221,-0.147483 0.07267,-0.165817 0.07385,-0.147725 0.07363,-0.165818 0.05551,-0.184663 0.03573,-0.166086 0.05527,-0.184179 0.03694,-0.184663 z m -13.042164,3.502949 h 0.184421 0.183452 v -0.184421 -0.166328 -0.184179 -0.184421 -0.183209 -0.166302 -0.184178 -0.184421 -0.166302 -0.184179 -0.18442 -0.165818 -0.184663 -0.184421 -0.184421 -0.166059 -0.184421 h -0.183452 -0.184421 -0.183209 -0.183452 -0.183209 -0.184421 -0.183452 -0.183209 -0.183451 -0.202756 -0.183451 -0.18321 -0.183209 -0.184905 -0.182967 -0.183452 -0.183452 -0.184421 -0.183451 -0.18321 -0.183209 -0.183451 -0.184421 -0.18321 -0.183451 -0.183452 -0.184421 -0.183451 -0.18321 -0.201786 -0.184421 -0.183451 -0.18321 -0.183209 -0.184421 -0.183451 -0.18321 -0.183694 -0.184178 V 86.913741 86.710986 86.526565 86.342144 86.139389 85.954968 85.770547 85.56755 85.383129 85.198708 84.995711 84.811532 h 0.184178 0.183694 0.18321 0.183451 0.184421 0.183209 0.18321 0.183451 0.166087 0.183452 0.183209 0.183209 0.184663 0.18321 0.183451 0.18321 0.18442 0.18321 0.183694 0.183209 0.184421 0.183209 0.183452 0.183451 0.184421 0.18321 0.165117 0.183209 0.184421 0.183452 0.183209 0.183209 0.184421 0.183452 0.183451 v -0.184421 -0.166302 -0.184421 -0.18442 -0.165818 -0.18442 -0.184421 -0.184421 -0.16606 -0.184421 -0.18442 -0.16606 -0.184178 -0.183452 -0.16606 -0.18442 h -0.183451 -0.183452 -0.184421 -0.183209 -0.183209 -0.183452 -0.184421 -0.183209 -0.165117 -0.18321 -0.184421 -0.183451 -0.183452 -0.183209 -0.184421 -0.183209 -0.183694 -0.18321 -0.18442 -0.18321 -0.183451 -0.18321 -0.184663 -0.183209 -0.183209 -0.183452 -0.166087 -0.183451 -0.18321 -0.183209 -0.184421 -0.183451 -0.18321 -0.183694 -0.184178 v -0.184421 -0.184421 -0.184421 -0.184421 -0.184421 -0.184421 -0.166086 -0.184421 -0.184421 -0.184421 -0.18442 -0.184179 h 0.184178 0.183694 0.18321 0.183451 0.184421 0.183209 0.164875 0.183452 0.184421 0.183452 0.183209 0.183209 0.184663 0.18321 0.183451 0.18321 0.18442 0.18321 0.183694 0.164632 0.184663 0.18321 0.183209 0.183452 0.184421 0.183209 0.183694 0.183209 0.184421 0.183452 0.183209 0.183209 0.16606 0.183209 0.183452 0.183451 0.184421 0.183452 0.183209 V 79.57468 79.408836 79.224173 79.039994 78.855573 78.689271 78.505093 78.32043 78.154612 77.970192 77.785771 77.619711 77.43529 77.25087 77.066449 76.900389 76.715968 H 86.415093 86.231641 86.04722 85.863769 85.680317 85.497108 85.312687 85.129235 84.946026 84.762817 84.578396 84.394944 84.211735 84.028283 83.862197 83.678745 83.495536 83.312327 83.127663 82.944454 82.761245 82.577793 82.393372 82.209921 82.026469 81.843502 81.66005 81.475387 81.292178 81.108969 80.925517 80.741096 80.557644 80.374193 80.190984 80.006563 79.823111 79.639902 79.45645 79.272272 79.08882 78.905368 78.721917 78.556073 78.372621 78.189654 78.00596 77.821781 77.63833 77.454878 77.271669 77.087248 76.903796 76.720345 76.537378 76.352957 76.169505 75.986054 v 0.184421 0.184663 0.184179 0.184663 0.184421 0.184178 0.184664 0.18442 0.184421 0.184421 0.184421 0.184421 0.184421 0.184421 0.18442 0.184421 0.184663 0.184179 0.166059 0.184421 0.184421 0.184421 0.184421 0.184421 0.184421 0.18442 0.184421 0.184421 0.184421 0.184663 0.184179 0.183451 0.184421 0.184421 0.184421 0.184421 0.18442 0.184421 0.184421 0.184421 0.184421 0.184663 0.184421 0.184421 0.184178 0.184421 0.184421 0.184663 0.184179 0.184663 0.184421 0.18442 0.184179 0.184663 0.165817 0.184664 0.18442 0.184179 0.184663 0.184179 0.184663 0.184421 0.18442 0.184421 0.184663 0.184179 0.184421 0.184178 0.184664 0.183451 0.184421 0.184421 0.184421 h 0.183451 0.183452 0.184421 0.182967 0.183451 0.183452 0.184421 0.183209 0.183452 0.201786 0.183451 0.184179 0.183452 0.183451 0.182967 0.184663 0.183452 0.183209 0.183452 0.184179 0.183693 0.18321 0.183451 0.184421 0.18321 0.183209 0.183452 0.18442 0.201786 0.18321 0.183451 0.184421 0.183452 0.183451 0.18321 0.184421 0.183451 0.18321 0.183209 0.183452 0.18442 0.183452 0.183452 0.182967 0.184905 0.183209 0.18321 0.183451 0.202756 0.183451 0.18321 0.183451 0.184421 0.183209 0.183452 z m -13.414131,0 H 73.091691 73.2749 V 89.955904 89.771484 89.587063 89.403611 89.218948 89.034769 88.850349 88.66617 88.481507 88.297086 88.112665 87.928244 87.743581 87.559403 87.374739 87.190561 87.00614 86.821477 86.65566 86.470997 86.286818 86.102397 85.917976 85.733313 85.549135 85.364471 85.180051 84.99563 84.811451 84.62703 84.44261 84.257946 84.073526 83.889105 83.704684 83.520263 83.335842 83.151421 82.967 82.78258 82.598159 82.414707 82.230529 82.045865 81.861445 81.677024 81.492603 81.308182 81.123761 80.93934 80.75492 80.570499 80.386078 80.201657 80.035597 79.851419 79.666756 79.482335 79.297914 79.113493 78.929072 78.744652 78.560231 78.37581 78.191389 78.006968 77.822305 77.638126 77.453706 77.269042 77.084864 76.900201 76.71578 h -0.183209 -0.183209 -0.166087 -0.183452 -0.183209 -0.183451 -0.165845 -0.183451 -0.18321 -0.183451 -0.16606 -0.183451 -0.182967 -0.183452 -0.166086 -0.18321 -0.183451 -0.183452 -0.165844 -0.183452 -0.183209 l -0.09221,0.147725 -0.09124,0.165844 -0.110545,0.146514 -0.09245,0.165844 -0.091,0.147483 -0.09221,0.166302 -0.109575,0.146271 -0.09221,0.166086 -0.09197,0.147726 -0.09148,0.147482 -0.110303,0.164633 -0.09148,0.147725 -0.09197,0.165844 -0.09221,0.147725 -0.109602,0.164875 -0.09245,0.147483 -0.091,0.147483 -0.09221,0.165117 -0.09221,0.147241 -0.109575,0.166059 -0.09197,0.147725 -0.09245,0.164633 -0.09124,0.147725 -0.110544,0.165817 -0.091,0.146514 -0.09221,0.147483 -0.09221,0.166086 -0.109576,0.147725 -0.09221,0.165845 -0.09148,0.146513 -0.09197,0.166087 -0.109575,0.147482 -0.09221,0.164875 -0.09197,0.147726 -0.09124,-0.147726 -0.09221,-0.164875 -0.110788,-0.147482 -0.09124,-0.166087 -0.09197,-0.146513 -0.09124,-0.165845 -0.09221,-0.147725 -0.110544,-0.166086 -0.09124,-0.147483 -0.09221,-0.146514 -0.091,-0.165817 -0.09221,-0.147725 -0.110545,-0.164633 -0.09148,-0.147725 -0.09221,-0.166059 -0.09076,-0.147241 -0.09245,-0.165117 -0.110545,-0.147483 -0.09124,-0.147483 -0.09221,-0.164875 -0.09221,-0.147725 -0.109603,-0.165844 -0.09221,-0.147725 -0.091,-0.164633 -0.09245,-0.147482 -0.09197,-0.147726 -0.109818,-0.166086 -0.09221,-0.146271 -0.091,-0.166302 -0.09221,-0.147483 -0.09245,-0.165844 -0.109334,-0.146514 -0.09221,-0.165844 -0.091,-0.147725 H 62.809273 62.626064 62.461189 62.277737 62.093316 61.909865 61.745232 61.56178 61.377359 61.19415 61.029033 60.845824 60.66116 60.477951 60.313076 60.128655 59.945204 59.761994 59.596877 59.412456 59.229247 v 0.184421 0.184663 0.184178 0.184664 0.18442 0.184179 0.184663 0.184421 0.184421 0.184421 0.184421 0.18442 0.184421 0.184421 0.184421 0.184421 0.184663 0.184178 0.16606 0.184421 0.184421 0.184421 0.18442 0.184421 0.184421 0.184421 0.184421 0.184421 0.18442 0.184664 0.184178 0.183452 0.184421 0.18442 0.184421 0.184421 0.184421 0.184421 0.184421 0.184421 0.18442 0.184664 0.18442 0.184421 0.184179 0.184421 0.18442 0.184664 0.184178 0.184663 0.184421 0.184421 0.184179 0.184663 0.165817 0.184663 0.184421 0.184178 0.184664 0.184178 0.184663 0.184421 0.184421 0.184421 0.184663 0.184179 0.18442 0.184179 0.184663 0.183452 0.184421 0.18442 0.184421 h 0.183209 0.184421 0.183452 0.183451 0.183452 0.184179 0.183451 0.183452 0.183209 0.184421 0.183452 0.183209 0.183452 0.18442 0.18321 0.183451 0.183452 0.184179 0.183451 v -0.184421 -0.18442 -0.184421 -0.184421 -0.185632 -0.184421 -0.184421 -0.184663 -0.184179 -0.184421 -0.166086 -0.18539 -0.184663 -0.184179 -0.184663 -0.184179 -0.185632 -0.184421 -0.184421 -0.184421 -0.18442 -0.184664 -0.18539 -0.18442 -0.184421 -0.184421 -0.184421 -0.184421 -0.185632 -0.184179 -0.184663 -0.184178 -0.166087 -0.184663 -0.185148 -0.184663 -0.184421 -0.184421 -0.184421 -0.18539 -0.184663 -0.184421 -0.18442 l 0.109333,0.147482 0.09269,0.167271 0.109334,0.147241 0.09221,0.166086 0.110545,0.147726 0.09124,0.165817 0.110545,0.148694 0.09124,0.16606 0.110545,0.147483 0.09221,0.166086 0.109576,0.147483 0.09221,0.167271 0.109576,0.147483 0.09221,0.165844 0.109602,0.147483 0.09221,0.167028 0.110788,0.147483 0.109333,0.166087 0.09245,0.147483 0.10936,0.167028 0.09245,0.147483 0.110544,0.166087 0.091,0.147482 0.110787,0.167271 0.091,0.147483 0.110787,0.165844 0.09221,0.147726 0.109575,0.166059 0.09197,0.148694 0.109817,0.165845 0.09197,0.147482 0.109817,0.165818 0.09221,0.148936 0.110545,0.165818 h 0.07291 l 0.09197,-0.147483 0.109818,-0.167271 0.09197,-0.147483 0.110787,-0.147483 0.091,-0.165817 0.110545,-0.147725 0.09124,-0.148695 0.09221,-0.165817 0.110787,-0.147483 0.091,-0.147483 0.110787,-0.148694 0.091,-0.166059 0.110545,-0.147483 0.09245,-0.147725 0.091,-0.166787 0.110787,-0.147725 0.09076,-0.147483 0.110787,-0.165844 0.091,-0.147725 0.110787,-0.148694 0.09245,-0.165845 0.091,-0.147482 0.110787,-0.147483 0.091,-0.167029 0.110545,-0.147725 0.09221,-0.147483 0.109576,-0.147483 0.09221,-0.167029 0.091,-0.147482 0.110787,-0.147726 0.09221,-0.165817 0.109602,-0.147725 0.09221,-0.147483 0.109818,-0.167271 0.09173,-0.147483 v 0.184421 0.184663 0.184179 0.185632 0.184663 0.184179 0.184663 0.184179 0.185632 0.184421 0.184421 0.184421 0.184178 0.184663 0.18539 0.184663 0.184179 0.184663 0.184421 0.184421 0.185632 0.184179 0.184663 0.184178 0.184421 0.184421 0.185633 0.18442 0.184421 0.184421 0.184663 0.18539 0.184421 0.184421 0.184179 0.184663 0.184421 0.18442 0.185633 0.184421 0.18442 0.184421 0.184421 h 0.183693 0.18321 0.184421 0.201786 0.183451 0.18321 0.18442 0.183452 0.183209 0.201786 0.183452 0.184421 0.183209 0.183694 0.183209 0.202513 z m -21.175563,-5.698809 0.05527,0.167029 0.07388,0.16606 h -0.183453 -0.184179 -0.183451 -0.183452 -0.183209 -0.183452 -0.184421 -0.183209 -0.164875 -0.184421 -0.183694 -0.183209 -0.183209 -0.184421 -0.183452 -0.183209 -0.183452 l 0.07267,-0.16606 0.05527,-0.167029 0.07388,-0.18442 0.07388,-0.16606 0.05406,-0.167029 0.07388,-0.166086 0.07363,-0.184421 0.07291,-0.167029 0.05527,-0.166086 0.07388,-0.165844 0.07363,-0.167029 0.0543,-0.184421 0.07388,-0.166059 0.07363,-0.167029 0.05551,-0.16606 0.07267,-0.165844 0.07388,-0.18539 0.07363,-0.166302 0.0543,-0.165844 0.07388,-0.167029 0.07388,-0.18442 0.05503,-0.167029 0.07267,-0.166087 0.07388,0.166087 0.05527,0.167029 0.07267,0.18442 0.07388,0.167029 0.05527,0.165844 0.07363,0.166302 0.07291,0.18539 0.05503,0.165844 0.07388,0.16606 0.07388,0.167029 0.05406,0.166059 0.07388,0.184421 0.05551,0.167029 0.07242,0.165844 0.07388,0.166086 0.05551,0.167029 0.07363,0.184421 0.07266,0.166086 0.05527,0.167029 0.07388,0.16606 z m 5.637258,5.698809 h 0.184179 0.183209 l -0.07363,-0.166059 -0.07385,-0.166087 -0.07242,-0.166059 -0.05551,-0.184179 -0.07388,-0.165117 -0.07363,-0.165817 -0.07291,-0.165817 -0.07363,-0.16606 -0.07363,-0.16606 -0.07266,-0.18442 -0.07388,-0.16606 -0.05551,-0.165817 -0.07267,-0.16606 -0.07363,-0.165844 -0.07385,-0.166059 -0.07363,-0.184421 -0.07267,-0.16606 -0.07388,-0.166086 -0.07388,-0.165817 -0.05406,-0.16606 -0.07388,-0.166086 -0.07388,-0.184421 -0.07385,-0.165817 -0.07266,-0.16606 -0.07388,-0.165844 -0.07363,-0.16606 -0.07267,-0.166059 -0.05527,-0.184421 -0.07388,-0.165844 -0.07266,-0.16606 -0.07388,-0.166086 -0.07388,-0.165844 -0.07363,-0.16606 -0.07267,-0.184421 -0.07363,-0.165844 -0.05551,-0.166086 -0.07242,-0.16606 -0.07388,-0.165844 -0.07385,-0.16606 -0.07363,-0.18442 -0.07291,-0.16606 -0.07388,-0.166086 -0.07363,-0.165818 -0.0543,-0.165844 -0.07363,-0.166302 -0.07388,-0.164632 -0.07266,-0.184663 -0.07388,-0.165844 -0.07388,-0.16606 -0.07363,-0.16606 -0.07267,-0.165844 -0.05551,-0.166086 -0.07363,-0.184421 -0.07266,-0.165844 -0.07388,-0.16606 -0.07363,-0.166086 -0.07388,-0.165844 -0.07291,-0.16606 -0.07363,-0.184421 -0.05527,-0.165817 -0.07267,-0.166086 -0.07388,-0.16606 -0.07363,-0.166059 -0.07267,-0.165818 -0.07388,-0.18442 -0.07388,-0.16606 -0.07363,-0.165844 -0.0543,-0.16606 -0.07388,-0.165844 -0.07388,-0.166302 -0.07242,-0.184178 -0.07388,-0.16606 -0.07363,-0.166086 -0.07388,-0.165844 -0.07267,-0.16606 -0.05527,-0.165844 -0.07388,-0.184663 -0.07266,-0.165844 -0.07388,-0.16606 -0.07363,-0.166059 H 51.861413 51.696538 51.511875 51.328666 51.145456 50.980339 50.796161 50.612709 50.4295 50.264625 50.079962 49.89651 49.713301 49.548426 49.364005 49.180553 48.997344 48.831257 48.648048 l -0.07266,0.166059 -0.07388,0.16606 -0.07363,0.165844 -0.05551,0.184663 -0.07266,0.165844 -0.07363,0.16606 -0.07388,0.165844 -0.07267,0.166086 -0.07385,0.16606 -0.07388,0.184178 -0.07388,0.166302 -0.05406,0.165844 -0.07388,0.16606 -0.07388,0.165844 -0.07266,0.16606 -0.07388,0.18442 -0.07363,0.165818 -0.07266,0.166059 -0.07363,0.16606 -0.05551,0.166086 -0.07363,0.165817 -0.07266,0.184421 -0.07388,0.16606 -0.07363,0.165844 -0.07291,0.166086 -0.07363,0.16606 -0.07388,0.165844 -0.05527,0.184421 -0.07266,0.166086 -0.07388,0.165844 -0.07363,0.16606 -0.07291,0.16606 -0.07363,0.165844 -0.07361,0.184663 -0.07291,0.164632 -0.05527,0.166302 -0.07388,0.165844 -0.07363,0.165818 -0.07267,0.166086 -0.07388,0.16606 -0.07388,0.18442 -0.07267,0.16606 -0.07388,0.165844 -0.05527,0.16606 -0.07363,0.166086 -0.07291,0.165844 -0.07363,0.184421 -0.07363,0.16606 -0.07291,0.165844 -0.07363,0.166086 -0.07388,0.16606 -0.05527,0.165844 -0.07266,0.184421 -0.07388,0.166059 -0.07385,0.16606 -0.07242,0.165844 -0.07388,0.16606 -0.07385,0.165817 -0.07266,0.184421 -0.05527,0.166086 -0.07388,0.16606 -0.07363,0.165817 -0.07291,0.166086 -0.07363,0.16606 -0.07388,0.184421 -0.07267,0.166059 -0.07388,0.165844 -0.05503,0.16606 -0.07388,0.165817 -0.07266,0.16606 -0.07385,0.18442 -0.07388,0.16606 -0.07267,0.16606 -0.07363,0.165817 -0.07388,0.165817 -0.05527,0.165117 -0.07291,0.184179 -0.07363,0.166059 -0.07388,0.166087 -0.07266,0.166059 h 0.183451 0.183452 0.183209 0.184664 0.201786 0.183209 0.182967 0.184663 0.183452 0.183209 0.183452 0.184178 0.183452 0.183451 0.201786 0.18321 0.184663 0.183209 0.18321 0.183451 l 0.07388,-0.166059 0.05527,-0.166087 0.07363,-0.166059 0.07291,-0.184179 0.05527,-0.165117 0.07388,-0.165817 0.07266,-0.165817 0.05527,-0.16606 0.07388,-0.16606 0.07363,-0.166059 0.0543,-0.165844 0.07363,-0.184421 0.07388,-0.16606 0.05527,-0.165844 0.07266,-0.166059 h 0.183209 0.184664 0.183451 0.182967 0.166302 0.183209 0.183452 0.183209 0.183452 0.184421 0.183209 0.18321 0.183693 0.184421 0.164875 0.18321 0.18442 0.183452 0.183209 0.183452 0.183452 0.184178 0.183452 0.183451 0.165845 0.183451 0.18321 0.183209 0.183451 l 0.07388,0.166059 0.05527,0.165844 0.07388,0.16606 0.07291,0.184421 0.05503,0.165844 0.07388,0.166059 0.07363,0.16606 0.0543,0.16606 0.07388,0.165817 0.07363,0.165817 0.0543,0.165117 0.07388,0.184179 0.07363,0.166059 0.05527,0.166087 0.07291,0.166059 h 0.184421 0.183209 0.164875 0.183451 0.184179 0.183694 0.183209 0.164875 0.184421 0.183452 0.183209 0.183452 0.18442 0.164875 0.183452 0.183209 0.184663 0.182967 z M 41.32159,88.536577 41.469072,88.426033 41.597009,88.315488 V 88.131067 87.946646 87.762467 87.596166 87.411987 87.227566 87.042903 86.858482 86.674061 86.508244 86.323823 86.139403 85.954982 85.770561 85.585898 85.401477 85.235633 85.05097 84.866791 84.682128 84.497949 84.313286 84.128865 83.963021 83.7786 83.593937 83.409516 83.225095 83.040675 82.874857 82.690194 82.506016 82.322564 h -0.183451 -0.18321 -0.18442 -0.18321 -0.183451 -0.18321 -0.184663 -0.183209 -0.183452 -0.183451 -0.184179 -0.183452 -0.183209 -0.183452 -0.18442 -0.18321 -0.183209 -0.183694 -0.184421 -0.183209 -0.183452 -0.183209 -0.184421 -0.183452 -0.183209 -0.183452 -0.18442 -0.18321 -0.183451 -0.18321 -0.183451 -0.184421 -0.183452 v 0.183452 0.165844 0.184663 0.184179 0.18442 0.166302 0.184179 0.184663 0.184178 0.166087 0.184421 0.184421 0.184663 0.165844 0.184421 h 0.183452 0.165844 0.183452 0.183451 0.183452 0.165844 0.183209 0.18321 0.183694 0.165844 0.183451 0.18321 0.183451 0.165844 0.183452 v 0.184421 0.18442 0.184421 0.184421 0.202998 0.184421 0.18442 0.184421 0.184179 l -0.146514,0.09245 -0.129148,0.07361 -0.164633,0.07388 -0.147482,0.07388 -0.16536,0.07361 -0.164633,0.03694 -0.183451,0.05527 -0.184421,0.0367 -0.183209,0.03718 -0.183452,0.01831 -0.201786,0.01831 -0.202998,0.01858 h -0.220147 -0.201786 l -0.201786,-0.01858 -0.183209,-0.01831 -0.183452,-0.0367 -0.184421,-0.03694 -0.183209,-0.05551 -0.183694,-0.05527 -0.165602,-0.07361 -0.164875,-0.07388 -0.165117,-0.07388 -0.147483,-0.09221 -0.146271,-0.09221 -0.146514,-0.110545 -0.147725,-0.110787 -0.127695,-0.110545 -0.111029,-0.128906 -0.127937,-0.129391 -0.110545,-0.128906 -0.109575,-0.147725 -0.09221,-0.147483 -0.09221,-0.147483 -0.09124,-0.166087 -0.07363,-0.166059 -0.07385,-0.184421 -0.0543,-0.147483 -0.05527,-0.166086 -0.03669,-0.165844 -0.03718,-0.16606 -0.0367,-0.165844 -0.01858,-0.184421 -0.01831,-0.166086 -0.01723,-0.184421 v -0.184421 -0.03694 -0.202998 l 0.01723,-0.18442 0.01831,-0.184179 0.03694,-0.202998 0.03694,-0.165817 0.0367,-0.183451 0.05551,-0.184421 0.07267,-0.166087 0.05551,-0.165844 0.07361,-0.166059 0.09221,-0.147483 0.091,-0.16606 0.09221,-0.147483 0.09124,-0.129148 0.110787,-0.147483 0.127937,-0.129148 0.110545,-0.129149 0.127937,-0.110545 0.129391,-0.110787 0.127937,-0.110302 0.147725,-0.09245 0.146271,-0.09245 0.147483,-0.09221 0.164875,-0.07363 0.165117,-0.07388 0.164633,-0.05527 0.166059,-0.05503 0.164875,-0.03718 0.183452,-0.03669 0.165817,-0.01858 0.183452,-0.01831 h 0.183209 0.201786 l 0.202755,0.01831 0.201786,0.01858 0.183694,0.01831 0.18321,0.0367 0.183209,0.03718 0.166086,0.0367 0.164875,0.05527 0.164875,0.05551 0.147483,0.05527 0.146514,0.07388 0.147482,0.07363 0.164875,0.09245 0.146514,0.09197 0.147483,0.09221 0.146513,0.09221 0.146514,0.110545 0.147483,0.09245 0.146513,0.128907 0.147483,0.110787 0.109576,-0.147483 0.128906,-0.129149 0.109818,-0.147482 0.129148,-0.147483 0.109361,-0.147483 0.110787,-0.129391 0.128179,-0.147483 0.110302,-0.147483 0.12818,-0.147482 0.110787,-0.129391 0.109333,-0.147483 0.129149,-0.147483 0.109602,-0.128906 0.110787,-0.147725 0.127937,-0.147483 0.110787,-0.147483 0.127937,-0.129148 0.110545,-0.147483 -0.146514,-0.110787 -0.147483,-0.128906 -0.146271,-0.110787 -0.147725,-0.110545 -0.146271,-0.09245 -0.146514,-0.110545 -0.166086,-0.09221 -0.146514,-0.09221 -0.164633,-0.09221 -0.147725,-0.09221 -0.164875,-0.07388 -0.164875,-0.09197 -0.166059,-0.07385 -0.164875,-0.07388 -0.164875,-0.07363 -0.166059,-0.05551 -0.146514,-0.05527 -0.164633,-0.0367 -0.166059,-0.05551 -0.165117,-0.03694 -0.164875,-0.03694 -0.165845,-0.0367 -0.183451,-0.03694 -0.18321,-0.03694 -0.166059,-0.01831 -0.201786,-0.03694 -0.183209,-0.01831 H 36.56659 l -0.201786,-0.01858 -0.202998,-0.01858 H 35.96002 35.758477 35.575025 35.373239 l -0.184421,0.01858 -0.183451,0.01858 -0.18321,0.01831 -0.183451,0.01831 -0.184179,0.03694 -0.183694,0.01858 -0.183209,0.0367 -0.164875,0.05527 -0.184421,0.03694 -0.164875,0.05527 -0.164633,0.03718 -0.166301,0.07363 -0.18321,0.05551 -0.146513,0.05503 -0.183452,0.09245 -0.165844,0.07363 -0.165117,0.07388 -0.164633,0.09221 -0.166059,0.09221 -0.164875,0.09221 -0.146272,0.09221 -0.147725,0.09221 -0.146513,0.110545 -0.147483,0.09221 -0.146514,0.110787 -0.128179,0.110545 -0.147429,0.129149 -0.127964,0.110544 -0.12896,0.129391 -0.128179,0.128664 -0.11068,0.129391 -0.127963,0.128906 -0.11068,0.129391 -0.109629,0.147482 -0.11068,0.147483 -0.109441,0.147483 -0.09235,0.147483 -0.09197,0.147483 -0.09132,0.147725 -0.09216,0.147483 -0.09216,0.166059 -0.07264,0.166087 -0.07385,0.165817 -0.07366,0.166086 -0.07283,0.165845 -0.07385,0.18442 -0.05535,0.16606 -0.05535,0.184421 -0.05409,0.166059 -0.03702,0.184421 -0.05533,0.184421 -0.03683,0.165844 -0.01831,0.184663 -0.03683,0.18321 -0.01858,0.202755 -0.01723,0.184663 v 0.184179 l -0.01831,0.202997 v 0.184421 0.03694 0.184421 0.202755 l 0.01831,0.184421 0.01723,0.184663 0.01858,0.184421 0.01804,0.165844 0.03702,0.184421 0.01858,0.166086 0.03683,0.184421 0.05533,0.166087 0.03683,0.184421 0.05428,0.165844 0.03683,0.165844 0.07385,0.166302 0.05533,0.147482 0.07283,0.165818 0.07366,0.166059 0.07385,0.165817 0.07264,0.166087 0.09216,0.147483 0.09216,0.166059 0.09132,0.147725 0.09197,0.147241 0.10963,0.147725 0.09216,0.147483 0.11068,0.129148 0.109629,0.147483 0.11068,0.129149 0.127964,0.129148 0.129202,0.129149 0.127964,0.110544 0.129175,0.129149 0.127964,0.110545 0.128933,0.110787 0.146756,0.110545 0.146513,0.110544 0.147483,0.110787 0.146272,0.09197 0.147725,0.09245 0.164875,0.09221 0.146271,0.09124 0.166302,0.09221 0.164632,0.07385 0.165118,0.07363 0.165817,0.07361 0.183209,0.07388 0.164875,0.05527 0.165117,0.07363 0.16606,0.05551 0.183209,0.03694 0.164875,0.05527 0.184421,0.03694 0.164875,0.0367 0.183452,0.03718 0.183209,0.0367 0.184663,0.01858 0.183209,0.01858 0.18321,0.01831 0.201786,0.01831 0.183451,0.01831 h 0.184421 0.201544 0.202028 0.201786 l 0.201571,-0.01831 0.184663,-0.01831 0.201786,-0.01831 0.183209,-0.01858 0.201786,-0.01858 0.183452,-0.01831 0.184421,-0.03694 0.183209,-0.0367 0.165091,-0.03694 0.18442,-0.03694 0.164875,-0.05551 0.18321,-0.05503 0.165117,-0.05551 0.165844,-0.05527 0.165117,-0.05551 0.164633,-0.07388 0.184663,-0.07361 0.164875,-0.07388 0.183209,-0.07363 0.164875,-0.09221 0.165817,-0.07266 0.165118,-0.09221 0.164875,-0.09245 0.166086,-0.09197 0.146514,-0.09221 0.147483,-0.09221 0.146513,-0.110788 0.146271,-0.09197 0.147483,-0.110787 z m 3.427637,17.520783 h 38.684998 l -19.745607,6.51154 z"
     fill="#000000"
     id="path2"
     style="stroke-width:2.41383" />
</svg>
